<svg data-v-0dd9719b="" version="1.0" xmlns="http://www.w3.org/2000/svg" xmlns:xlink="http://www.w3.org/1999/xlink" width="100%" height="100%" viewBox="0 0 340.000000 250.000000" preserveAspectRatio="xMidYMid meet" color-interpolation-filters="sRGB" style="margin: auto;"> <rect data-v-0dd9719b="" x="0" y="0" width="100%" height="100%" fill="#fff" fill-opacity="1" class="background"></rect> <rect data-v-0dd9719b="" x="0" y="0" width="100%" height="100%" fill="url(#watermark)" fill-opacity="1" class="watermarklayer"></rect> <g data-v-0dd9719b="" fill="#005b9e" class="icon-text-wrapper icon-svg-group iconsvg" transform="translate(48.65556335449219,94.99790000915527)"><g class="iconsvg-imagesvg" transform="translate(0,0)"><g><rect fill="#005b9e" fill-opacity="0" stroke-width="2" x="0" y="0" width="60" height="60.004200294020585" class="image-rect"></rect> <svg x="0" y="0" width="60" height="60.004200294020585" filtersec="colorsb941927281" class="image-svg-svg primary" style="overflow: visible;"><svg xmlns="http://www.w3.org/2000/svg" viewBox="0 -4.93756023480646e-13 139.010009765625 139.01998901367188"><defs><radialGradient id="a037d9348-b3f0-4cec-b234-7ec162f7af30" cx="69.49" cy="69.49" r="69.49" gradientUnits="userSpaceOnUse"><stop offset="0" stop-color="#00b7eb"></stop><stop offset="1" stop-color="#005b9e"></stop></radialGradient><radialGradient id="b9cd01a84-5515-483c-afc6-b7bbf30960c4" cx="245.07" cy="-244.33" r="55.47" gradientTransform="rotate(-77.3 356.758 34.173)" gradientUnits="userSpaceOnUse"><stop offset="0" stop-color="#ffd200"></stop><stop offset="1" stop-color="#f15c22"></stop></radialGradient><radialGradient id="ccac6acdb-209f-4f66-8e19-dd8fb28bef5d" cx="66.25" cy="89.75" r="23.82" gradientUnits="userSpaceOnUse"><stop offset="0" stop-color="#231f20"></stop><stop offset="1" stop-color="#151313"></stop></radialGradient></defs><g><g><path d="M69.49 0A69.49 69.49 0 0 0 0 69.49c0 1.37.05 2.73.13 4.08A61.59 61.59 0 0 1 120 57.74a50.12 50.12 0 0 1 3.22 17.71v2c0 .8 0 1.6-.06 2.4s.06 1.53.06 2.31a56.88 56.88 0 0 1-55.61 56.86h1.9a69.49 69.49 0 0 0 0-139z" fill="url(#a037d9348-b3f0-4cec-b234-7ec162f7af30)"></path><path d="M6.37 69.7A55.47 55.47 0 0 0 48.3 136c1.07.24 2.13.44 3.2.62a49.17 49.17 0 0 1 8.69-96.11 40 40 0 0 1 14.35.6l.75.19.76.15c.63.14 1.24.3 1.86.47s1.2.22 1.81.36a45.41 45.41 0 0 1 34.53 53.28c.13-.49.25-1 .36-1.47A55.47 55.47 0 1 0 6.37 69.7z" fill="url(#b9cd01a84-5515-483c-afc6-b7bbf30960c4)"></path><path d="M39.19 69.67h10.46l6.72 23.78 6.49-23.78h7.24l6.09 23.84 6.66-23.84H93.3l-11.08 40.16h-9.37l-6.6-23.33-6.55 23.33h-9.42z" fill="url(#ccac6acdb-209f-4f66-8e19-dd8fb28bef5d)"></path></g></g></svg></svg> <!----></g></g> <g transform="translate(67,1.4958515167236328)"><g data-gra="path-name" fill-rule="" class="tp-name iconsvg-namesvg" transform="translate(0,0)"><g transform="scale(1)"><g><path d="M39.33-34.54L39.33-34.54 40.74-33.13Q42.06-31.46 40.17-30.01L40.17-30.01Q39.11-29.18 38.32-29.22 37.53-29.27 36.74-30.28L36.74-30.28Q35.68-31.6 34.28-33L34.28-33Q32.3-34.76 34.37-36.39L34.37-36.39Q35.9-37.53 37.35-36.39L37.35-36.39Q38.32-35.51 39.33-34.54ZM8.35-36.08L8.35-36.08 20.43-36.08Q22.81-36.08 22.81-33.71 22.81-31.33 20.43-31.33L20.43-31.33 8.35-31.33Q5.98-31.33 5.98-33.71 5.98-36.08 8.35-36.08ZM10.28-3.25L13.62-3.78 13.62-18.98Q13.62-21.49 16.22-21.49L16.22-21.49Q18.72-21.49 18.72-18.98L18.72-18.98 18.72-16.48 22.72-16.48Q25.05-16.48 25.05-14.15L25.05-14.15Q25.05-11.73 22.72-11.73L22.72-11.73 18.72-11.73 18.72-4.66 23.55-5.58Q26.15-6.02 26.37-3.38L26.37-3.38Q26.59-1.01 24.21-0.62L24.21-0.62Q19.69 0.26 5.23 2.94L5.23 2.94Q4 3.16 3.36 2.66 2.72 2.15 2.42 0.83L2.42 0.83Q1.76-1.89 4.48-2.33L4.48-2.33 5.41-2.46 5.41-16.22Q5.41-18.63 7.87-18.63L7.87-18.63Q10.28-18.63 10.28-16.22L10.28-16.22 10.28-3.25ZM26.24-22.81L26.24-22.81 5.01-22.81Q2.55-22.81 2.55-25.27 2.55-27.73 5.01-27.73L5.01-27.73 25.97-27.73Q25.8-32.43 25.75-35.2L25.75-35.2Q25.75-37.92 28.43-37.92L28.43-37.92Q31.2-37.92 31.11-35.16L31.11-35.16Q31.11-31.29 31.25-27.73L31.25-27.73 39.99-27.73Q42.45-27.73 42.45-25.27 42.45-22.81 39.99-22.81L39.99-22.81 31.55-22.81Q32.21-13.36 33.82-7.36 35.42-1.36 37.44-1.36L37.44-1.36Q38.1-1.36 38.5-3.56L38.5-3.56Q38.67-5.84 39.48-7.19 40.3-8.53 41.75-7.56L41.75-7.56Q42.54-7.03 42.78-5.56 43.02-4.09 42.85-2.72L42.85-2.72Q42.19 1.1 40.85 2.53 39.51 3.96 36.91 3.96L36.91 3.96Q28.21 3.96 26.24-22.81ZM55.15-29.93L55.15-29.93Q54.05-30.72 51.42-32.21L51.42-32.21Q49.04-33.4 50.67-35.6L50.67-35.6Q51.77-37.27 53.66-36.47L53.66-36.47Q55.68-35.55 58.54-33.84L58.54-33.84Q59.5-33.13 59.55-32.37 59.59-31.6 58.89-30.59L58.89-30.59Q57.3-28.21 55.15-29.93ZM53.13-17.93L53.13-17.93Q51.2-19.16 49.09-20.21L49.09-20.21Q46.93-21.27 48.3-23.51L48.3-23.51Q49.35-25.31 51.24-24.52L51.24-24.52Q53.92-23.33 56.34-21.97L56.34-21.97Q57.3-21.36 57.39-20.57 57.48-19.78 56.82-18.76L56.82-18.76Q55.28-16.3 53.13-17.93ZM49.26-2.11L49.26-2.11Q52.82-7.65 54.89-11.65L54.89-11.65Q56.38-14.37 58.54-12.22L58.54-12.22Q59.99-10.77 59.11-9.01L59.11-9.01Q56.6-4.04 53.75 0.83L53.75 0.83Q52.21 3.38 49.97 1.45L49.97 1.45Q48.96 0.57 48.76-0.2 48.56-0.97 49.26-2.11ZM79.85-30.19L79.85-30.19 67.72-30.19Q69.92-20.08 74.36-13.01L74.36-13.01Q78.71-19.47 80.68-28.96L80.68-28.96Q80.95-30.19 79.85-30.19ZM63.85-35.24L63.85-35.24 83.41-35.24Q84.86-35.24 85.58-34.28 86.31-33.31 86.04-31.38L86.04-31.38Q83.89-17.23 77.65-8.61L77.65-8.61Q81.17-4.7 85.25-2.33L85.25-2.33Q88.59-0.66 86.62 1.85L86.62 1.85Q85.17 3.65 82.71 2.46L82.71 2.46Q77.7-0.44 74.18-4.44L74.18-4.44Q69.92-0.18 63.85 2.68L63.85 2.68Q61.3 3.78 60.03 1.89L60.03 1.89Q59.15 0.4 59.57-0.46 59.99-1.32 61.66-2.02L61.66-2.02Q67.15-4.57 70.93-8.7L70.93-8.7Q66.09-16.08 63.24-27.25L63.24-27.25Q62.71-29.71 64.91-30.15L64.91-30.15 65.04-30.19 63.85-30.19Q61.35-30.19 61.35-32.7L61.35-32.7Q61.35-35.24 63.85-35.24ZM96.59 1.36L96.59 1.36 96.59-22.02 94.13-22.02Q91.71-22.02 91.71-24.43 91.71-26.85 94.13-26.85L94.13-26.85 96.59-26.85 96.59-35.55Q96.59-38.06 99.14-38.06L99.14-38.06Q101.65-38.06 101.65-35.55L101.65-35.55 101.65-26.85 103.67-26.85Q106.13-26.85 106.13-24.43 106.13-22.02 103.67-22.02L103.67-22.02 101.65-22.02 101.65 1.36Q101.65 3.87 99.14 3.87L99.14 3.87Q96.59 3.87 96.59 1.36ZM126.04-18.98L126.04-19.6 121.25-19.6 121.25-18.63Q121.25-17.93 121.95-17.93L121.95-17.93 124.98-17.93Q126.04-17.93 126.04-18.98L126.04-18.98ZM116.46-18.98L116.46-19.6 112.06-19.6 112.06-18.63Q112.06-17.93 112.76-17.93L112.76-17.93 115.4-17.93Q116.46-17.93 116.46-18.98L116.46-18.98ZM112.06-23.33L112.06-22.76 116.46-22.76 116.46-24.43 113.12-24.43Q112.06-24.43 112.06-23.33L112.06-23.33ZM121.25-24.43L121.25-22.76 126.04-22.76 126.04-23.77Q126.04-24.43 125.38-24.43L125.38-24.43 121.25-24.43ZM106.61-10.63L106.61-10.63 121.95-10.63 121.95-12.04Q121.95-12.57 122.28-12.9 122.61-13.23 123.13-13.23L123.13-13.23 126.04-13.23 126.04-14.72 121.25-14.72 121.25-14.63Q121.25-13.58 120.59-13.01 119.93-12.44 118.83-12.44L118.83-12.44Q116.46-12.44 116.46-14.63L116.46-14.63 116.46-14.72 112.06-14.72 112.06-14.5Q112.06-12.3 109.86-12.3L109.86-12.3Q107.58-12.3 107.58-14.5L107.58-14.5 107.58-25Q107.58-26.32 108.39-27.14 109.2-27.95 110.52-27.95L110.52-27.95 116.46-27.95 116.46-29.71 107.36-29.71Q105.38-29.71 105.38-31.73L105.38-31.73Q105.38-33.71 107.36-33.71L107.36-33.71 116.46-33.71 116.46-35.73Q116.46-38.1 118.83-38.1L118.83-38.1Q121.25-38.1 121.25-35.73L121.25-35.73 121.25-33.71 126.21-33.71Q126.08-33.79 123.75-35.16L123.75-35.16Q123.09-35.51 123.71-36.12L123.71-36.12Q124.76-37.09 126.25-36.98 127.75-36.87 129.16-36.12L129.16-36.12Q129.95-35.68 130.32-35 130.69-34.32 130.25-33.71L130.25-33.71 131-33.71Q132.98-33.71 132.98-31.73L132.98-31.73Q132.98-29.71 131-29.71L131-29.71 121.25-29.71 121.25-27.95 127.79-27.95Q129.11-27.95 129.92-27.14 130.74-26.32 130.74-25L130.74-25 130.74-15.21Q130.74-13.89 129.92-13.1 129.11-12.3 127.79-12.3L127.79-12.3 127-12.3 127-10.63 131.22-10.63Q133.37-10.63 133.37-8.48L133.37-8.48Q133.37-6.28 131.22-6.28L131.22-6.28 127-6.28 127-1.01Q127 0.83 126.56 1.76 126.12 2.68 124.94 3.21L124.94 3.21Q123.62 3.74 120.76 3.82L120.76 3.82Q118.26 3.91 117.64 2.07L117.64 2.07Q117.2 0.7 117.93 0.11 118.65-0.48 120.23-0.44L120.23-0.44 121.2-0.44Q121.95-0.44 121.95-1.14L121.95-1.14 121.95-6.28 112.98-6.28Q114.79-4.75 116.19-3.16L116.19-3.16Q116.94-2.24 116.83-1.56 116.72-0.88 115.75-0.13L115.75-0.13Q114.74 0.7 113.95 0.64 113.16 0.57 112.41-0.44L112.41-0.44Q111.45-1.63 110.39-2.68L110.39-2.68Q108.5-4.53 110.83-6.28L110.83-6.28 106.61-6.28Q104.46-6.28 104.46-8.48L104.46-8.48Q104.46-10.63 106.61-10.63ZM141.9-36.04L141.9-36.04 174.42-36.04Q176.92-36.04 176.92-33.53L176.92-33.53Q176.92-30.98 174.42-30.98L174.42-30.98 145.37-30.98Q144.27-30.98 144.27-29.88L144.27-29.88 144.27-4.09Q144.27-3.03 145.37-3.03L145.37-3.03 175.47-3.03Q177.98-3.03 177.98-0.48L177.98-0.48Q177.98 2.02 175.47 2.02L175.47 2.02 141.9 2.02Q140.58 2.02 139.77 1.23 138.96 0.44 138.96-0.88L138.96-0.88 138.96-33.13Q138.96-34.45 139.77-35.24 140.58-36.04 141.9-36.04ZM154.03-23.25L154.03-20.26 173.19-20.26Q175.52-20.26 175.52-17.97L175.52-17.97Q175.52-15.64 173.19-15.64L173.19-15.64 166.77-15.64 166.77-7.03Q166.77-4.48 164.27-4.48L164.27-4.48Q161.72-4.48 161.72-7.03L161.72-7.03 161.72-15.64 153.72-15.64Q153.19-10.5 151.17-6.77L151.17-6.77Q150.25-5.41 149.44-5.19 148.62-4.97 147.44-5.98L147.44-5.98Q145.63-7.69 147.13-10.15L147.13-10.15Q149.02-14.15 149.02-20.92L149.02-20.92 149.02-25.18Q149.02-26.67 149.9-27.4 150.78-28.13 152.27-27.82L152.27-27.82 154.25-27.42Q161.41-28.21 167.39-29.71L167.39-29.71Q168.75-30.1 170.11-28.87 171.47-27.64 171.36-26.83 171.25-26.02 169.5-25.58L169.5-25.58Q162.6-23.99 154.03-23.25L154.03-23.25Z" transform="translate(-2.2911243438720703, 38.099998474121094)"></path></g> <!----> <!----> <!----> <!----> <!----> <!----> <!----></g></g> <g data-gra="path-slogan" fill-rule="" class="tp-slogan iconsvg-slogansvg" fill="#005b9e" transform="translate(5,48.05999755859375)"><rect x="0" height="1" y="3.9750003814697266" width="29.874439239501953"></rect> <rect height="1" y="3.9750003814697266" width="29.874439239501953" x="135.81443405151367"></rect> <g transform="translate(32.87443923950195,0)"><g transform="scale(1)"><path d="M5.67-7.13L5.63-7.13L3.66 0L2.44 0L0.19-8.58L1.41-8.58L3.05-1.59L3.09-1.59L5.02-8.58L6.28-8.58L8.20-1.59L8.25-1.59L9.84-8.58L11.11-8.58L8.86 0L7.64 0L5.67-7.13ZM17.86-3.19L17.86-8.58L19.03-8.58L19.03-3.05Q18.89 0.05 15.52 0.14L15.52 0.14Q12.38 0.05 12.23-2.86L12.23-2.86L12.23-8.58L13.41-8.58L13.41-3.19Q13.45-0.84 15.56-0.80L15.56-0.80Q17.86-0.84 17.86-3.19L17.86-3.19ZM21.98-5.06L26.48-5.06L26.48-8.58L27.66-8.58L27.66 0L26.48 0L26.48-3.98L21.98-3.98L21.98 0L20.81 0L20.81-8.58L21.98-8.58L21.98-5.06ZM35.11 0L34.27-2.48L30.80-2.48L29.91 0L28.73 0L31.97-8.58L33.28-8.58L36.38 0L35.11 0ZM32.53-7.31L31.17-3.52L33.84-3.52L32.58-7.31L32.53-7.31ZM38.81-8.58L43.13-1.64L43.13-8.58L44.25-8.58L44.25 0L42.94 0L38.58-6.94L38.53-6.94L38.53 0L37.41 0L37.41-8.58L38.81-8.58ZM52.59-7.64L50.53-7.64L50.53-4.97L52.59-4.97Q54.42-4.92 54.38-6.38L54.38-6.38Q54.38-7.64 52.59-7.64L52.59-7.64ZM53.06 0L49.36 0L49.36-8.58L53.16-8.58Q55.45-8.48 55.55-6.42L55.55-6.42Q55.55-5.16 54.42-4.64L54.42-4.64Q56.02-4.08 56.02-2.53L56.02-2.53Q55.88-0.09 53.06 0L53.06 0ZM52.78-3.98L50.53-3.98L50.53-0.98L53.02-0.98Q54.80-1.03 54.84-2.53L54.84-2.53Q54.84-3.98 52.78-3.98L52.78-3.98ZM64.13-4.27L64.13-4.27Q63.94-7.64 61.13-7.83L61.13-7.83Q58.27-7.69 58.13-4.27L58.13-4.27Q58.27-0.94 61.13-0.80L61.13-0.80Q63.94-0.98 64.13-4.27ZM65.30-4.27L65.30-4.27Q65.02 0 61.13 0.14L61.13 0.14Q57.19 0 56.91-4.27L56.91-4.27Q57.14-8.72 61.13-8.81L61.13-8.81Q65.02-8.67 65.30-4.27ZM65.95-1.92L65.95-2.77L67.03-2.77L67.03-2.16Q67.03-0.75 68.34-0.75L68.34-0.75Q69.70-0.75 69.70-2.25L69.70-2.25L69.70-8.58L70.88-8.58L70.88-2.30Q70.83 0.09 68.39 0.14L68.39 0.14Q66.09 0.09 65.95-1.92L65.95-1.92ZM72.84-8.58L74.02-8.58L74.02 0L72.84 0L72.84-8.58ZM81.66 0L80.81-2.48L77.34-2.48L76.45 0L75.28 0L78.52-8.58L79.83-8.58L82.92 0L81.66 0ZM79.08-7.31L77.72-3.52L80.39-3.52L79.13-7.31L79.08-7.31ZM85.36-8.58L89.67-1.64L89.67-8.58L90.80-8.58L90.80 0L89.48 0L85.13-6.94L85.08-6.94L85.08 0L83.95 0L83.95-8.58L85.36-8.58ZM99-3.61L96.38-3.61L96.38-4.59L100.13-4.59L100.13 0L99.38 0L99.09-1.08Q98.11 0.09 96.28 0.14L96.28 0.14Q94.55 0.14 93.61-0.75L93.61-0.75Q92.20-2.06 92.25-4.36L92.25-4.36Q92.58-8.63 96.33-8.81L96.33-8.81Q99.52-8.63 99.98-6L99.98-6L98.86-6Q98.39-7.78 96.28-7.83L96.28-7.83Q93.61-7.64 93.47-4.31L93.47-4.31Q93.47-0.75 96.33-0.75L96.33-0.75Q97.36-0.75 98.11-1.31L98.11-1.31Q99.05-2.06 99-3.61L99-3.61Z" transform="translate(-0.1875, 8.8125)"></path></g></g></g></g></g><defs v-gra="od"></defs></svg>